<svg width="29" height="40" viewBox="0 0 29 40" fill="none" xmlns="http://www.w3.org/2000/svg">
<path d="M21.1107 15.2673H8.11349C6.07273 15.1904 4.14203 14.3525 2.7263 12.9293C1.31056 11.5061 0.519775 9.60822 0.519775 7.63363C0.519775 5.65905 1.31056 3.76115 2.7263 2.33798C4.14203 0.914805 6.07273 0.0769044 8.11349 0H21.1107C23.1515 0.0769044 25.0822 0.914805 26.4979 2.33798C27.9137 3.76115 28.7044 5.65905 28.7044 7.63363C28.7044 9.60822 27.9137 11.5061 26.4979 12.9293C25.0822 14.3525 23.1515 15.1904 21.1107 15.2673ZM8.11349 2.89811C6.85639 2.95827 5.67134 3.48344 4.80362 4.36493C3.93591 5.24642 3.45196 6.41673 3.45196 7.63363C3.45196 8.85053 3.93591 10.0208 4.80362 10.9023C5.67134 11.7838 6.85639 12.309 8.11349 12.3692H21.1107C22.3678 12.309 23.5529 11.7838 24.4206 10.9023C25.2883 10.0208 25.7723 8.85053 25.7723 7.63363C25.7723 6.41673 25.2883 5.24642 24.4206 4.36493C23.5529 3.48344 22.3678 2.95827 21.1107 2.89811H8.11349Z" fill="#171D2A"/>
<path d="M14.516 27.6248H8.11334C6.02093 27.6248 4.01421 26.8212 2.53465 25.3907C1.05509 23.9602 0.223877 22.02 0.223877 19.997C0.223877 17.9739 1.05509 16.0338 2.53465 14.6033C4.01421 13.1728 6.02093 12.3691 8.11334 12.3691C8.51084 12.3691 8.89205 12.5218 9.17312 12.7936C9.4542 13.0653 9.6121 13.4339 9.6121 13.8182C9.6121 14.2025 9.4542 14.5711 9.17312 14.8428C8.89205 15.1146 8.51084 15.2673 8.11334 15.2673C6.81592 15.2673 5.57163 15.7656 4.65421 16.6526C3.73679 17.5396 3.22139 18.7426 3.22139 19.997C3.22139 21.2514 3.73679 22.4544 4.65421 23.3414C5.57163 24.2284 6.81592 24.7267 8.11334 24.7267H13.0173V13.8182C13.0173 13.4339 13.1752 13.0653 13.4563 12.7936C13.7373 12.5218 14.1185 12.3691 14.516 12.3691C14.9135 12.3691 15.2947 12.5218 15.5758 12.7936C15.8569 13.0653 16.0148 13.4339 16.0148 13.8182V26.1758C16.0148 26.5601 15.8569 26.9286 15.5758 27.2004C15.2947 27.4721 14.9135 27.6248 14.516 27.6248Z" fill="#171D2A"/>
<path d="M8.20919 39.9943C7.14646 40.0343 6.0863 39.8665 5.09225 39.5009C4.0982 39.1353 3.19071 38.5795 2.42417 37.8667C1.65762 37.1539 1.04781 36.2988 0.631257 35.3527C0.214708 34.4066 0 33.3889 0 32.3606C0 31.3324 0.214708 30.3147 0.631257 29.3685C1.04781 28.4224 1.65762 27.5673 2.42417 26.8545C3.19071 26.1417 4.0982 25.5859 5.09225 25.2203C6.0863 24.8547 7.14646 24.6869 8.20919 24.727C8.60669 24.727 8.9879 24.8797 9.26898 25.1514C9.55005 25.4232 9.70795 25.7917 9.70795 26.176C9.70795 26.5604 9.55005 26.9289 9.26898 27.2007C8.9879 27.4724 8.60669 27.6251 8.20919 27.6251C7.23878 27.6228 6.28948 27.8989 5.48145 28.4185C4.67343 28.9381 4.04301 29.6778 3.67001 30.5439C3.297 31.4101 3.19817 32.3638 3.38604 33.2843C3.5739 34.2048 4.04001 35.0507 4.72535 35.7149C5.4107 36.3792 6.28448 36.8319 7.23607 37.0158C8.18767 37.1996 9.1743 37.1064 10.0711 36.7479C10.9679 36.3894 11.7345 35.7817 12.2738 35.0018C12.8132 34.2218 13.1011 33.3047 13.1011 32.3664V26.176C13.1011 25.7917 13.259 25.4232 13.5401 25.1514C13.8212 24.8797 14.2024 24.727 14.5999 24.727C14.9974 24.727 15.3786 24.8797 15.6597 25.1514C15.9408 25.4232 16.0987 25.7917 16.0987 26.176V32.3664C16.0955 34.3885 15.2633 36.3269 13.7844 37.7567C12.3055 39.1866 10.3006 39.9912 8.20919 39.9943Z" fill="#171D2A"/>
<path d="M21.0028 27.8223C19.421 27.8223 17.8748 27.3688 16.5596 26.5191C15.2445 25.6695 14.2194 24.4619 13.6141 23.0491C13.0088 21.6362 12.8505 20.0815 13.159 18.5816C13.4676 17.0817 14.2293 15.704 15.3478 14.6226C16.4662 13.5413 17.8912 12.8048 19.4425 12.5065C20.9939 12.2081 22.6019 12.3613 24.0632 12.9465C25.5245 13.5317 26.7736 14.5228 27.6523 15.7943C28.5311 17.0659 29.0001 18.5608 29.0001 20.0901C29.0001 21.1055 28.7933 22.1109 28.3914 23.0491C27.9895 23.9872 27.4004 24.8396 26.6577 25.5576C25.9151 26.2755 25.0335 26.8451 24.0632 27.2337C23.0929 27.6223 22.053 27.8223 21.0028 27.8223ZM21.0028 15.2676C20.0134 15.2676 19.0462 15.5514 18.2237 16.0831C17.4013 16.6148 16.7604 17.3705 16.3823 18.2545C16.0043 19.1384 15.906 20.111 16.0999 21.049C16.2938 21.9871 16.7711 22.8484 17.4716 23.524C18.172 24.1996 19.064 24.659 20.0347 24.8443C21.0054 25.0295 22.011 24.9321 22.9244 24.5644C23.8378 24.1968 24.6179 23.5754 25.1658 22.7789C25.7138 21.9824 26.005 21.0467 26.0026 20.0901C25.9994 18.81 25.4713 17.5834 24.534 16.6794C23.5966 15.7753 22.3267 15.2676 21.0028 15.2676Z" fill="#171D2A"/>
<path d="M14.5161 15.2673C14.3193 15.2657 14.1247 15.2268 13.9435 15.1525C13.7622 15.0783 13.5979 14.9703 13.4598 14.8347C13.3218 14.699 13.2127 14.5384 13.1388 14.362C13.065 14.1856 13.0278 13.9969 13.0293 13.8066L13.1253 1.43746C13.1284 1.05716 13.286 0.693296 13.5642 0.424373C13.8423 0.15545 14.2187 0.00303044 14.612 0C14.8089 0.00151627 15.0034 0.0405005 15.1847 0.114727C15.3659 0.188953 15.5303 0.296968 15.6683 0.432603C15.8064 0.568238 15.9155 0.728837 15.9893 0.90523C16.0632 1.08162 16.1004 1.27036 16.0988 1.46065L16.0029 13.8298C15.9967 14.2092 15.8381 14.5713 15.5606 14.8396C15.2831 15.1079 14.9085 15.2613 14.5161 15.2673Z" fill="#171D2A"/>
</svg>
