<svg width="35" height="50" viewBox="0 0 35 50" fill="none" xmlns="http://www.w3.org/2000/svg">
<path d="M5.43887 4.49667H7.4768V6.76031H9.70586V0H7.4768V2.23406H5.43887V0H3.21082V6.76031H5.43887V4.49667Z" fill="#171D2A"/>
<path d="M12.635 6.76031H14.8631V2.24324H16.8236V0H10.6746V2.24324H12.635V6.76031Z" fill="#171D2A"/>
<path d="M19.98 3.41127L21.515 5.81365H21.5522L23.0842 3.41127V6.76031H25.3042V0H22.9806L21.5522 2.37891L20.1239 0H17.8013V6.76031H19.98V3.41127Z" fill="#171D2A"/>
<path d="M31.7741 4.52728H28.6408V0H26.4127V6.76031H31.7741V4.52728Z" fill="#171D2A"/>
<path d="M0 9.72705L3.18666 45.9738L17.4915 50.0002L31.8073 45.9759L35 9.72705H0ZM28.0865 21.5808H17.4995H11.3113L11.7116 26.1336H17.4995H27.6882L26.4861 39.7858L17.4995 42.3106L17.4935 42.3126L8.51286 39.7858L7.88619 32.645H12.286L12.6119 36.349L17.4945 37.6874L17.5005 37.6854L22.3881 36.347L22.8971 30.5813H17.5005H7.70412L6.52019 17.1372H17.4995H28.4778L28.0865 21.5808Z" fill="#171D2A"/>
</svg>
