<svg width="23" height="50" viewBox="0 0 23 50" fill="none" xmlns="http://www.w3.org/2000/svg">
<path d="M19.6351 38.1926L18.2333 40.5951L17.776 48.4276C17.776 49.2968 14.9625 50 11.5027 50C8.04295 50 5.22941 49.2968 5.22941 48.4276L4.65278 40.6732L3.17145 38.1926C7.26749 39.8822 15.6982 39.8236 19.6351 38.1926ZM0.149128 13.4547L1.50122 25.7113C2.08779 23.7581 3.56912 21.1212 5.47795 20.3204C6.10429 20.0567 6.74057 20.0567 7.33708 20.4083C7.85405 20.7013 8.2915 21.3165 8.3412 21.5607C8.46051 22.1955 8.14237 22.4494 7.89382 22.4494C7.59557 22.4494 7.3669 22.0002 7.21778 21.7365C6.81016 21.0235 6.19377 20.9942 5.53761 21.463C4.85162 21.9513 4.25511 22.7717 3.83755 23.4846C3.33052 24.3441 2.90302 25.2914 2.64453 26.2387C2.4954 26.7856 2.35622 27.6646 2.58488 28.1822C2.6843 28.3971 2.83343 28.5338 3.07203 28.5338C3.56912 28.5338 4.29488 27.8892 4.64284 27.5474C5.09022 27.1079 5.66685 26.4243 5.88557 25.9848L6.40255 24.471C6.66103 23.8069 7.38679 23.9241 7.38679 24.471C7.38679 25.4672 7.01894 25.7992 6.3926 27.8599C5.81598 29.7643 5.63702 30.3796 5.63702 30.3796C5.56743 30.6531 5.299 31.1121 5.01069 31.1121C4.89139 31.1121 4.80191 31.073 4.7522 30.9949C4.65278 30.8582 4.66272 30.4773 4.67267 30.3796C4.69255 30.0671 5.299 28.2115 5.39842 27.9185C5.19958 28.1334 4.9908 28.3482 4.76214 28.5631C4.22528 29.0612 3.36034 29.7155 2.62465 29.7155C2.28662 29.7155 2.0679 29.6276 1.85912 29.4811L2.6147 37.255C2.81354 37.7434 6.51191 38.9251 11.3834 38.9251C16.2649 38.9251 19.9632 37.7336 20.1521 37.255L21.2358 28.0162C20.6691 28.524 20.0129 29.1491 19.2872 29.4616C18.7503 29.6862 17.5573 29.8327 17.5573 28.9049C17.5573 28.3971 18.462 27.4595 18.9889 26.8052C19.1281 26.6391 19.4562 26.229 19.4562 26.0141C19.4562 25.7309 18.8597 25.7992 18.293 26.2583C17.9748 26.5219 17.6766 26.8735 17.428 27.2056C17.0005 27.7916 16.7719 28.2994 16.583 28.7193C15.9666 30.1062 16.1754 29.5592 15.6783 30.8679C15.1812 32.1668 15.2607 32.0203 15.1613 32.2352C15.0718 32.4208 14.9426 32.577 14.7636 32.6747C14.5747 32.7723 14.3163 32.7626 14.1572 32.6454C14.0677 32.5868 14.0279 32.4598 14.0279 32.284C14.0279 32.1961 14.0379 32.1082 14.0578 32.0203C14.2069 31.4246 14.8332 30.2526 15.549 28.6705C15.7081 28.3092 15.6485 28.4166 15.6286 28.4459C15.0122 29.0319 14.5449 29.3151 14.1969 29.4713C13.6203 29.7253 12.9045 29.7253 12.7554 29.0709C12.7454 29.0319 12.7454 28.9928 12.7355 28.9537C11.5624 29.8522 10.3196 30.0964 10.7471 28.1627C10.2898 28.9635 9.49446 29.6178 8.52016 29.6178C8.11254 29.6178 7.81429 29.4811 7.66516 29.1198C7.4365 28.5826 7.7944 27.6646 8.12248 26.7954C8.2915 26.3559 8.52016 25.8285 8.82835 25.2133C8.98742 24.8812 9.24591 24.6859 9.58393 24.7738C9.64359 24.7933 9.6933 24.8128 9.743 24.8421C10.0015 25.0179 9.90207 25.2816 9.77283 25.5453C9.39504 26.2778 9.06696 26.8149 8.84824 27.5767C8.75876 27.899 8.6494 28.4557 8.99737 28.4557C9.23597 28.4557 9.46463 28.3775 9.68335 28.2213C10.1407 27.8892 10.5085 27.3911 10.7869 26.9028C10.9857 26.5512 11.2243 26.0922 11.3436 25.7016C11.3934 25.5356 11.453 25.3793 11.5226 25.2328C11.632 24.9886 11.7811 24.7347 12.0396 24.7347C12.1688 24.7347 12.2782 24.7835 12.3577 24.8812C12.5267 25.0961 12.487 25.3207 12.3975 25.5551C12.1986 26.102 11.9302 26.5903 11.7115 27.186C11.5822 27.5279 11.4431 27.9673 11.4431 28.3287C11.4431 28.6607 11.8109 28.5826 12.1191 28.4459C12.3577 28.3385 12.5963 28.1724 12.7951 28.0064C12.9145 27.5279 12.8846 27.6353 15.4198 21.3458C15.549 21.0235 15.7876 20.8868 16.0262 20.8868C16.1455 20.8868 16.245 20.9259 16.3444 20.9942C16.5134 21.1212 16.5134 21.3947 16.4438 21.5998C16.3742 21.7853 16.3842 21.7267 15.9964 22.6252C15.4794 23.8069 15.1414 24.6566 14.6841 25.7406C14.4952 26.1899 13.9186 27.5865 13.8192 27.9185C13.7595 28.1334 13.6899 28.485 13.9186 28.485C14.4554 28.485 15.8374 27.2056 16.2151 26.8247C16.235 26.7954 16.2649 26.7856 16.3046 26.7661C16.3643 26.5805 16.4239 26.4047 16.4736 26.229C16.6128 25.8578 16.7421 25.4281 17.0005 25.1254C17.0801 25.0277 17.1696 24.9691 17.269 24.9691C17.5473 24.9691 17.6865 25.0863 17.6865 25.3598C17.6865 25.4672 17.6169 25.8578 17.5772 25.9653C17.7164 25.8188 17.8655 25.6723 18.0246 25.5258C19.5158 24.1683 20.5796 24.8617 20.5796 25.5453C20.5796 26.268 19.6948 27.2739 19.2076 27.8306C19.0486 28.0162 18.7205 28.358 18.7105 28.4557C18.7105 28.5826 18.8 28.6315 18.9293 28.6315C19.1281 28.6315 19.5655 28.2896 19.7246 28.1724C20.2217 27.7916 20.8978 27.2056 21.375 26.7954L22.8464 13.4352C19.8141 15.1052 3.20127 15.115 0.149128 13.4547ZM22.9855 12.6246C22.9855 14.6755 0 14.6755 0 12.6246C0 11.7651 5.14987 11.0717 11.4928 11.0717C12.3875 11.0717 13.2624 11.0815 14.1075 11.1108L15.3601 6.35464L21.4545 0.055409C21.5937 -0.0813185 22.0311 0.0358764 22.4387 0.397228C22.8464 0.758579 23.0949 1.16876 22.9657 1.30549L22.9557 1.31525L17.259 7.22383L16.2649 11.1987C20.2316 11.4526 22.9855 11.9898 22.9855 12.6246ZM16.0859 13.0738C16.0859 12.9957 15.9964 12.9273 15.8374 12.8687L15.8175 12.9469C15.8175 13.0738 15.3204 13.1812 14.7139 13.1812C14.1075 13.1812 13.6104 13.0738 13.6104 12.9469C13.6104 12.9371 13.6104 12.9273 13.6203 12.9176L13.6402 12.8492C13.4613 12.9078 13.342 12.9859 13.342 13.0738C13.342 13.2789 13.9583 13.4352 14.704 13.4352C15.4695 13.4449 16.0859 13.2789 16.0859 13.0738Z" fill="#171D2A"/>
</svg>
