<svg width="54" height="40" viewBox="0 0 54 40" fill="none" xmlns="http://www.w3.org/2000/svg">
<path d="M25.4677 30.2405C25.4424 30.2905 25.4171 30.3305 25.4677 30.2405V30.2405ZM46.4883 22.9911C44.7913 22.9906 43.1169 23.3755 41.5945 24.116C41.0967 23.1244 40.582 22.2578 40.4976 21.6079C40.3964 20.8496 40.2867 20.3997 40.4048 19.4997C40.523 18.5998 41.0545 17.3249 41.0461 17.2332C41.0376 17.1416 40.928 16.6833 39.8395 16.675C38.7511 16.6666 37.8145 16.8833 37.7056 17.1666C37.5134 17.6843 37.3638 18.2166 37.2584 18.7581C37.0644 19.733 35.0824 23.2161 33.9602 25.0326C33.5889 24.3243 33.2767 23.6994 33.2092 23.1994C33.108 22.4412 32.9983 21.9912 33.1164 21.0913C33.2346 20.1913 33.7661 18.9164 33.7577 18.8248C33.7492 18.7331 33.6396 18.2748 32.552 18.2665C31.4643 18.2582 30.5269 18.4748 30.4172 18.7581C30.3076 19.0414 30.1894 19.708 29.97 20.3497C29.7507 20.9913 27.1105 26.7908 26.4195 28.299C26.0651 29.0656 25.7614 29.6822 25.542 30.0989C25.5082 30.1655 25.4829 30.2072 25.4661 30.2405C25.4914 30.1989 25.5082 30.1572 25.5082 30.1739C25.3226 30.5322 25.2129 30.7321 25.2129 30.7321V30.7405C25.0695 31.0071 24.9092 31.2488 24.8332 31.2488C24.7826 31.2488 24.6729 30.5488 24.8586 29.5906C25.2551 27.5741 26.1917 24.441 26.1833 24.3327C26.1748 24.2743 26.3604 23.7327 25.5673 23.4411C24.7995 23.1661 24.521 23.6244 24.4535 23.6244C24.386 23.6244 24.3354 23.791 24.3354 23.791C24.3354 23.791 25.1876 20.258 22.6994 20.258C21.1469 20.258 18.9868 21.9412 17.9254 23.4661C17.2588 23.8244 15.816 24.5993 14.2972 25.4242C13.715 25.7409 13.1159 26.0659 12.5506 26.3742C12.5084 26.3325 12.4747 26.2908 12.4325 26.2492C9.41268 23.0661 3.83712 20.8163 4.07337 16.5416C4.15775 14.9834 4.70619 10.8921 14.795 5.92583C23.0639 1.8595 29.6747 2.97607 30.813 5.4592C32.4499 9.00058 27.2785 15.5917 18.6915 16.5416C15.4186 16.8999 13.6981 15.65 13.2678 15.1834C12.8206 14.6918 12.7531 14.6668 12.5844 14.7584C12.3059 14.9084 12.4831 15.3417 12.5844 15.6C12.8375 16.2583 13.8922 17.4249 15.6886 18.0082C17.2664 18.5165 21.1038 18.7998 25.7437 17.0249C30.9564 15.0418 35.014 9.5172 33.8243 4.89258C32.6127 0.192964 24.7219 -1.34858 17.2605 1.26788C12.8147 2.82608 8.00698 5.27588 4.54841 8.46729C0.440142 12.267 -0.217147 15.575 0.0528562 16.9583C1.0139 21.8662 7.86354 25.0659 10.6049 27.4324C10.4699 27.5074 10.3434 27.5741 10.2252 27.6407C8.85074 28.3157 3.62871 31.0155 2.32173 33.8652C0.845147 37.0983 2.56642 39.4148 3.69621 39.7314C7.22228 40.698 10.8327 38.9565 12.7725 36.0984C14.7123 33.2403 14.4769 29.5072 13.5825 27.8074C13.5741 27.7824 13.5572 27.7657 13.5488 27.7407C13.9032 27.5324 14.266 27.3241 14.6288 27.1158C15.3283 26.7075 16.0117 26.3325 16.6108 26.0075C16.2733 26.9075 16.0286 27.9907 15.902 29.5572C15.7502 31.3904 16.518 33.7652 17.5136 34.6985C17.9524 35.1068 18.4831 35.1151 18.8122 35.1151C19.9766 35.1151 20.4997 34.1652 21.081 33.032C21.7982 31.6487 22.4311 30.0405 22.4311 30.0405C22.4311 30.0405 21.6379 34.3902 23.8064 34.3902C24.5987 34.3902 25.3918 33.3819 25.747 32.8653V32.8736C25.747 32.8736 25.7639 32.8403 25.8061 32.7736C25.8905 32.6487 25.9327 32.5737 25.9327 32.5737V32.5487C26.2533 32.007 26.9536 30.7655 28.0075 28.7156C29.3744 26.0659 30.6813 22.7578 30.6813 22.7578C30.8076 23.485 30.9824 24.2032 31.2045 24.9076C31.4407 25.6992 31.9385 26.5658 32.3351 27.4074C32.0145 27.8407 31.8204 28.0907 31.8204 28.0907C31.821 28.0971 31.824 28.103 31.8289 28.1074C31.5757 28.4407 31.2888 28.799 30.9935 29.1489C29.9144 30.4155 28.631 31.8654 28.4622 32.282C28.2597 32.7736 28.3104 33.1403 28.6985 33.4236C28.9854 33.6402 29.4916 33.6736 30.0224 33.6319C30.9927 33.5652 31.6761 33.3319 32.0052 33.1819C32.6118 32.9671 33.1852 32.6698 33.7087 32.2987C34.7635 31.5321 35.4047 30.4322 35.3456 28.9823C35.3119 28.1824 35.0503 27.3824 34.7297 26.6325C34.8225 26.4992 34.9238 26.3575 35.0166 26.2158C36.6864 23.8077 37.9773 21.1646 37.9773 21.1646C38.1036 21.8918 38.2784 22.6099 38.5005 23.3144C38.703 23.9894 39.0987 24.731 39.4615 25.4559C37.893 26.7141 36.9226 28.1723 36.5851 29.1306C35.9607 30.9055 36.4501 31.7054 37.3698 31.8887C37.7833 31.972 38.3739 31.7804 38.8127 31.5971C39.4643 31.3827 40.0787 31.0708 40.6343 30.6721C41.689 29.9055 42.7091 28.8306 42.6416 27.3724C42.6163 26.7141 42.4307 26.0559 42.186 25.4226C43.5107 24.8726 45.2311 24.5726 47.4249 24.8226C52.123 25.3642 53.0427 28.264 52.8655 29.4722C52.6883 30.6805 51.7011 31.3554 51.372 31.5554C51.0429 31.7554 50.9417 31.8304 50.967 31.9804C51.0092 32.197 51.1611 32.1887 51.4395 32.1387C51.8277 32.072 53.9025 31.1554 53.9953 28.914C54.1303 26.0809 51.372 22.9644 46.4858 22.9894L46.4883 22.9911ZM10.2759 35.0485C8.72418 36.7233 6.54728 37.3566 5.61155 36.8233C4.60747 36.2467 5.00404 33.7819 6.91853 31.997C8.08292 30.9138 9.58397 29.9139 10.5796 29.2973C10.8074 29.1639 11.1365 28.964 11.5415 28.7223C11.609 28.6806 11.6427 28.664 11.6427 28.664C11.7187 28.614 11.8031 28.5723 11.8874 28.5223C12.5869 31.0554 11.9127 33.2886 10.2759 35.0468V35.0485ZM21.6126 27.4324C21.0726 28.7406 19.9344 32.0737 19.2425 31.8987C18.6519 31.7487 18.289 29.2073 19.1244 26.7075C19.5462 25.4492 20.4406 23.9494 20.9722 23.3661C21.8235 22.4245 22.7601 22.1245 22.9795 22.4995C23.2748 22.9911 21.9501 26.6158 21.6126 27.4324ZM30.9783 31.8487C30.7505 31.9654 30.5396 32.0404 30.4383 31.982C30.3624 31.9404 30.5311 31.7821 30.5311 31.7821C30.5311 31.7821 31.704 30.5405 32.168 29.9739C32.438 29.6406 32.7502 29.2489 33.0869 28.8156C33.0869 28.8573 33.0953 28.899 33.0953 28.949C33.0844 30.4405 31.6339 31.4487 30.9758 31.8487H30.9783ZM38.1992 30.2239C38.0305 30.1072 38.0558 29.7156 38.6211 28.499C38.8405 28.024 39.3459 27.2241 40.2243 26.4575C40.3237 26.7477 40.3778 27.0511 40.3846 27.3574C40.3761 29.2323 39.0177 29.9322 38.2001 30.2239H38.1992Z" fill="#171D2A"/>
</svg>
