<svg width="1353" height="179" viewBox="0 0 1353 179" fill="none" xmlns="http://www.w3.org/2000/svg">
<path d="M1353 81.6756L0 179L0 127.829L1353 29V81.6756Z" fill="#DBFF00"/>
<path d="M65.8394 143.375C68.8735 143.147 70.5074 144.587 70.7412 147.696L71.1358 152.945C71.3696 156.053 69.9694 157.722 66.9353 157.95L61.9932 158.321C58.9591 158.55 57.3252 157.109 57.0915 154.001L56.6968 148.752C56.4631 145.643 57.8632 143.975 60.8973 143.747L65.8394 143.375ZM59.1045 153.512C59.2543 155.504 60.2971 156.427 62.233 156.282L66.3932 155.969C68.3291 155.823 69.2222 154.755 69.0724 152.763L68.7281 148.184C68.5797 146.211 67.5376 145.297 65.6018 145.443L61.4415 145.755C59.5056 145.901 58.6119 146.96 58.7602 148.933L59.1045 153.512ZM88.1829 141.695L89.2788 156.27L87.2405 156.423L86.2979 143.886L76.4696 144.625L77.4123 157.162L75.374 157.315L74.2781 142.74L88.1829 141.695ZM94.0775 141.252L95.0307 153.928L102.597 153.359C104.105 153.246 104.804 152.463 104.695 151.011L104.615 149.95C104.51 148.554 103.704 147.913 102.196 148.026L95.7186 148.513L95.5737 146.587L102.387 146.074C105.03 145.876 106.446 147.042 106.637 149.573L106.744 150.997C106.941 153.622 105.718 155.034 103.075 155.232L93.1352 155.98L92.0393 141.405L94.0775 141.252ZM110.132 140.045L111.228 154.619L109.19 154.773L108.094 140.198L110.132 140.045ZM127.432 138.744L127.585 140.782L121.47 141.242L122.413 153.778L120.347 153.934L119.404 141.397L113.261 141.859L113.108 139.821L127.432 138.744ZM147.975 137.199C150.6 137.002 151.989 137.927 152.143 139.974L152.236 141.203C152.335 142.525 151.787 143.455 150.592 143.994C151.966 144.34 152.705 145.211 152.81 146.607L152.936 148.282C153.096 150.404 151.882 151.563 149.295 151.757L138.713 152.553L137.617 137.978L147.975 137.199ZM140.6 150.389L148.809 149.772C150.26 149.663 150.942 149.022 150.854 147.849L150.764 146.649C150.671 145.42 149.76 144.871 148.029 145.001L141.355 145.503L141.242 143.995L147.915 143.493C149.572 143.369 150.358 142.739 150.272 141.603L150.194 140.57C150.112 139.472 149.326 138.979 147.837 139.091L139.796 139.695L140.6 150.389ZM172.27 135.372C175.304 135.144 176.938 136.584 177.172 139.693L177.567 144.942C177.8 148.051 176.4 149.719 173.366 149.947L167.168 150.413L167.016 148.403L172.824 147.966C174.76 147.821 175.653 146.752 175.503 144.76L175.159 140.181C175.01 138.208 173.968 137.294 172.033 137.44L167.984 137.744C166.067 137.889 165.182 138.947 165.331 140.92L166.422 155.439L164.384 155.593L163.267 140.739C163.033 137.63 164.434 135.962 167.468 135.733L172.27 135.372ZM189.422 134.083C192.456 133.855 194.09 135.295 194.323 138.403L194.718 143.653C194.952 146.761 193.552 148.429 190.518 148.658L185.38 149.044C182.793 149.238 181.402 148.051 181.209 145.483L181.123 144.338C180.961 142.179 182.108 141.007 184.565 140.822L191.294 140.316L191.418 141.963L185.22 142.429C183.712 142.543 183.006 143.242 183.103 144.526L183.153 145.196C183.265 146.685 184.084 147.372 185.611 147.258L190.05 146.924C191.949 146.781 192.824 145.723 192.676 143.75L192.3 138.752C192.156 136.835 191.162 135.946 189.319 136.084L180.999 136.71L180.85 134.727L189.422 134.083ZM206.475 132.801C209.1 132.603 210.489 133.528 210.643 135.576L210.735 136.804C210.835 138.126 210.287 139.056 209.092 139.595C210.464 139.923 211.204 140.794 211.31 142.208L211.436 143.884C211.596 146.006 210.382 147.164 207.794 147.359L198.664 148.045L198.513 146.035L207.336 145.371C208.788 145.262 209.47 144.621 209.382 143.449L209.291 142.248C209.199 141.019 208.287 140.47 206.556 140.6L202.48 140.907L202.366 139.399L206.443 139.093C208.099 138.968 208.885 138.338 208.8 137.203L208.722 136.17C208.639 135.071 207.844 134.579 206.337 134.692L197.709 135.341L197.568 133.47L206.475 132.801ZM223.598 131.513C226.632 131.285 228.266 132.725 228.5 135.834L228.895 141.083C229.128 144.191 227.728 145.86 224.694 146.088L218.496 146.554L218.344 144.544L224.152 144.107C226.088 143.961 226.981 142.893 226.831 140.901L226.487 136.322C226.339 134.349 225.296 133.435 223.361 133.581L219.312 133.885C217.395 134.029 216.51 135.088 216.659 137.061L217.75 151.58L215.712 151.733L214.595 136.879C214.362 133.771 215.762 132.102 218.796 131.874L223.598 131.513ZM240.75 130.223C243.784 129.995 245.418 131.435 245.651 134.544L246.046 139.793C246.28 142.902 244.88 144.57 241.846 144.798L236.708 145.185C234.121 145.379 232.73 144.192 232.537 141.623L232.451 140.478C232.289 138.319 233.436 137.147 235.893 136.962L242.622 136.457L242.746 138.104L236.548 138.57C235.04 138.683 234.334 139.382 234.431 140.667L234.481 141.337C234.593 142.826 235.412 143.513 236.939 143.398L241.378 143.064C243.277 142.922 244.152 141.864 244.004 139.891L243.628 134.893C243.484 132.975 242.49 132.086 240.647 132.225L232.327 132.85L232.178 130.868L240.75 130.223ZM253.778 123.207L256.765 122.982L252.016 127.776C251.634 128.179 251.382 128.563 251.26 128.928C251.136 129.274 251.092 129.68 251.127 130.145L251.794 139.024C251.944 141.016 252.978 141.94 254.895 141.795L258.943 141.491C260.879 141.345 261.772 140.277 261.623 138.285L261.32 134.264C261.17 132.273 260.128 131.35 258.192 131.495L252.384 131.932L252.233 129.922L258.432 129.455C261.466 129.227 263.1 130.668 263.333 133.776L263.686 138.467C263.92 141.575 262.52 143.244 259.485 143.472L254.683 143.833C251.649 144.061 250.015 142.621 249.781 139.512L249.082 130.215C249.028 129.489 249.102 128.856 249.304 128.317C249.526 127.776 249.914 127.213 250.469 126.629L253.778 123.207ZM276.182 127.559C279.216 127.331 280.85 128.771 281.084 131.88L281.478 137.129C281.712 140.238 280.312 141.906 277.278 142.134L272.336 142.506C269.302 142.734 267.668 141.294 267.434 138.185L267.039 132.936C266.806 129.827 268.206 128.159 271.24 127.931L276.182 127.559ZM269.447 137.697C269.597 139.688 270.64 140.612 272.575 140.466L276.736 140.153C278.672 140.008 279.565 138.939 279.415 136.947L279.071 132.368C278.922 130.395 277.88 129.481 275.944 129.627L271.784 129.94C269.848 130.085 268.954 131.145 269.103 133.118L269.447 137.697ZM297.911 125.925L298.064 127.964L291.95 128.423L292.892 140.96L290.826 141.115L289.883 128.579L283.741 129.041L283.588 127.002L297.911 125.925ZM302.978 125.544L303.444 131.743L305.482 131.59L311.019 124.94L313.476 124.755L307.311 132.014L314.963 139.301L312.534 139.483L305.589 133.014L303.551 133.167L304.073 140.119L302.035 140.273L300.939 125.698L302.978 125.544ZM325.169 123.876C327.775 123.68 329.174 124.866 329.368 127.435L329.456 128.608C329.617 130.748 328.469 131.911 326.012 132.096L319.255 132.604L319.131 130.957L325.329 130.49C326.837 130.377 327.543 129.678 327.446 128.394L327.396 127.724C327.284 126.235 326.465 125.547 324.938 125.662L320.527 125.994C318.609 126.138 317.725 127.197 317.873 129.17L318.249 134.168C318.393 136.085 319.396 136.974 321.257 136.834L329.55 136.21L329.699 138.193L321.155 138.835C318.121 139.063 316.487 137.623 316.254 134.514L315.859 129.265C315.625 126.157 317.025 124.488 320.059 124.26L325.169 123.876ZM350.831 121.946L350.985 123.985L344.87 124.444C342.934 124.59 342.04 125.649 342.189 127.622L342.533 132.201C342.683 134.193 343.725 135.116 345.661 134.971L351.776 134.511L351.927 136.521L345.422 137.01C342.388 137.238 340.754 135.798 340.52 132.69L340.125 127.441C339.891 124.332 341.292 122.664 344.326 122.435L350.831 121.946ZM369.614 114.694C372.909 114.446 374.673 115.876 374.907 118.985L375.02 120.493C375.26 123.676 373.816 125.385 370.689 125.62L367.003 125.897C365.03 126.045 364.12 127.134 364.272 129.163L364.595 133.463L375.541 132.64L375.698 134.734L362.631 135.716L362.135 129.127C361.896 125.944 363.331 124.236 366.439 124.002L370.181 123.721C372.172 123.571 373.093 122.491 372.942 120.48L372.855 119.336C372.717 117.493 371.615 116.649 369.548 116.804L361.619 117.401L361.461 115.307L369.614 114.694ZM388.233 113.294C391.249 113.067 392.873 114.498 393.105 117.588L393.941 128.701C394.173 131.791 392.781 133.449 389.766 133.676L384.098 134.102C381.064 134.33 379.431 132.899 379.198 129.81L378.363 118.697C378.13 115.607 379.531 113.948 382.565 113.72L388.233 113.294ZM381.295 129.315C381.439 131.232 382.451 132.12 384.331 131.979L389.19 131.613C391.07 131.472 391.938 130.443 391.793 128.526L391.008 118.083C390.864 116.166 389.852 115.278 387.972 115.419L383.114 115.784C381.234 115.926 380.366 116.955 380.51 118.872L381.295 129.315ZM397.047 112.631C399.466 112.449 400.769 113.587 400.954 116.044L402.209 132.74L400.087 132.9L398.861 116.594C398.762 115.272 398.06 114.661 396.757 114.759L395.724 114.836L395.567 112.742L397.047 112.631ZM413.901 111.364C416.935 111.136 418.568 112.566 418.8 115.656L418.943 117.555C419.009 118.43 418.879 119.188 418.553 119.831C418.244 120.453 417.727 120.932 417.004 121.267C418.628 121.706 419.511 122.875 419.654 124.774L419.82 126.98C420.041 129.921 418.635 131.505 415.601 131.734L410.016 132.153C406.982 132.382 405.355 131.025 405.134 128.084L404.968 125.878C404.825 123.98 405.524 122.692 407.064 122.014C406.297 121.772 405.705 121.368 405.288 120.8C404.889 120.231 404.657 119.509 404.591 118.634L404.449 116.735C404.216 113.646 405.617 111.987 408.651 111.758L413.901 111.364ZM407.235 127.645C407.368 129.414 408.365 130.228 410.226 130.088L415.056 129.725C416.937 129.583 417.81 128.628 417.677 126.86L417.507 124.599C417.381 122.923 416.322 122.16 414.331 122.31L409.863 122.646C407.871 122.796 406.939 123.708 407.065 125.384L407.235 127.645ZM406.653 118.788C406.77 120.352 407.797 121.061 409.733 120.915L414.2 120.579C416.118 120.435 417.017 119.581 416.9 118.018L416.755 116.091C416.611 114.174 415.599 113.286 413.719 113.427L409.112 113.774C407.232 113.915 406.364 114.944 406.508 116.861L406.653 118.788ZM441.305 115.144L441.458 117.182L431.797 117.908L432.74 130.445L430.702 130.598L429.606 116.023L441.305 115.144ZM453.695 114.212C456.729 113.984 458.363 115.424 458.597 118.533L458.992 123.782C459.225 126.89 457.825 128.559 454.791 128.787L449.849 129.158C446.815 129.387 445.181 127.946 444.947 124.838L444.553 119.589C444.319 116.48 445.719 114.812 448.753 114.584L453.695 114.212ZM446.96 124.349C447.11 126.341 448.153 127.264 450.089 127.119L454.249 126.806C456.185 126.66 457.078 125.592 456.928 123.6L456.584 119.021C456.436 117.048 455.393 116.134 453.458 116.28L449.297 116.592C447.361 116.738 446.468 117.797 446.616 119.77L446.96 124.349ZM463.077 126.114C463.834 125.982 464.43 125.685 464.863 125.222C465.296 124.758 465.579 124.045 465.712 123.08L466.936 113.216L476.374 112.507L477.316 125.043L479.522 124.877L480.007 131.327L478.164 131.466L477.833 127.054L463.9 128.102L464.232 132.513L462.389 132.652L461.904 126.202L463.077 126.114ZM475.28 125.225L474.489 114.698L468.597 115.141L467.52 123.59C467.46 124.044 467.379 124.461 467.277 124.844C467.173 125.207 467.04 125.545 466.876 125.856L475.28 125.225ZM490.191 111.468C493.225 111.24 494.859 112.68 495.092 115.788L495.487 121.038C495.721 124.146 494.321 125.815 491.286 126.043L486.149 126.429C483.562 126.624 482.171 125.436 481.978 122.868L481.892 121.723C481.73 119.564 482.877 118.392 485.334 118.207L492.063 117.701L492.187 119.348L485.989 119.814C484.481 119.928 483.775 120.627 483.872 121.911L483.922 122.581C484.034 124.07 484.853 124.757 486.38 124.643L490.819 124.309C492.718 124.166 493.593 123.108 493.445 121.135L493.069 116.137C492.925 114.22 491.931 113.331 490.088 113.469L481.768 114.095L481.619 112.112L490.191 111.468Z" fill="#171D2B"/>
<path d="M1353 97.3244L0 0V51.1706L1353 150V97.3244Z" fill="#7F00FF"/>
<path d="M67.1388 36.4263C67.9076 36.4105 68.5411 36.2065 69.0393 35.8143C69.5375 35.422 69.9255 34.7591 70.2033 33.8257L72.9051 24.2608L82.3412 24.9869L81.3767 37.5218L83.5821 37.6915L83.0859 44.1405L81.2434 43.9987L81.5828 39.5877L67.652 38.5158L67.3126 42.9268L65.47 42.785L65.9662 36.336L67.1388 36.4263ZM79.3365 37.3929L80.1464 26.868L74.2558 26.4148L71.9127 34.6031C71.7853 35.0427 71.6421 35.4435 71.4832 35.8057C71.3257 36.1493 71.1424 36.4629 70.9334 36.7463L79.3365 37.3929ZM89.4839 25.5365L88.5946 37.0943L99.3109 26.2926L101.349 26.4494L100.228 41.0223L98.1895 40.8655L99.0853 29.2239L88.3626 40.1094L86.3246 39.9526L87.4459 25.3797L89.4839 25.5365ZM113.971 27.4206C116.595 27.6226 117.828 28.7472 117.671 30.7944L117.576 32.0228C117.475 33.3442 116.792 34.181 115.53 34.5332C116.837 35.0644 117.436 36.0372 117.327 37.4517L117.198 39.1267C117.035 41.2485 115.66 42.2098 113.073 42.0107L103.944 41.3083L104.098 39.2982L112.92 39.9771C114.372 40.0888 115.143 39.5583 115.233 38.3858L115.326 37.1854C115.42 35.957 114.602 35.2762 112.871 35.143L108.795 34.8294L108.911 33.3219L112.987 33.6355C114.644 33.7629 115.515 33.259 115.603 32.1237L115.682 31.0908C115.767 29.9927 115.055 29.3856 113.548 29.2696L104.921 28.6058L105.065 26.7354L113.971 27.4206ZM130.561 28.6972C133.595 28.9306 134.992 30.6014 134.753 33.7096L134.349 38.958C134.11 42.0662 132.474 43.5035 129.44 43.2701L124.303 42.8749C121.716 42.6758 120.521 41.2921 120.719 38.7237L120.807 37.579C120.973 35.4201 122.285 34.4351 124.741 34.6242L131.469 35.1419L131.343 36.789L125.145 36.3121C123.637 36.1961 122.834 36.7802 122.735 38.0644L122.684 38.7344C122.569 40.2234 123.275 41.0266 124.801 41.144L129.24 41.4855C131.139 41.6316 132.164 40.7182 132.315 38.7454L132.7 33.7482C132.848 31.8312 132 30.8018 130.157 30.66L121.838 30.0199L121.991 28.0377L130.561 28.6972ZM142.86 21.3311C142.66 24.6668 143.723 26.4242 146.049 26.6032C148.394 26.7837 149.723 25.2103 150.035 21.8831L151.57 22.0013C151.39 24.103 150.84 25.652 149.921 26.6484C149.022 27.6277 147.698 28.05 145.948 27.9154C144.217 27.7822 142.973 27.1622 142.216 26.0555C141.479 24.9317 141.182 23.3175 141.325 21.2129L142.86 21.3311ZM140.996 29.5001L140.107 41.0579L150.823 30.2563L152.861 30.4131L151.74 44.986L149.702 44.8292L150.597 33.1876L139.875 44.073L137.837 43.9162L138.958 29.3433L140.996 29.5001ZM158.866 30.8752L158.437 36.4587L168.264 37.2148L168.693 31.6313L170.731 31.7881L169.61 46.361L167.572 46.2042L168.116 39.1411L158.289 38.385L157.745 45.4481L155.707 45.2913L156.829 30.7184L158.866 30.8752ZM184.163 32.8216C186.769 33.0221 187.973 34.4066 187.775 36.975L187.685 38.1475C187.52 40.2878 186.209 41.2635 183.753 41.0745L176.997 40.5546L177.123 38.9075L183.321 39.3844C184.829 39.5004 185.632 38.9163 185.731 37.6321L185.782 36.962C185.897 35.4731 185.191 34.6699 183.665 34.5525L179.254 34.2131C177.337 34.0656 176.302 34.9783 176.151 36.9511L175.766 41.9483C175.619 43.8653 176.475 44.8954 178.337 45.0386L186.628 45.6766L186.476 47.6588L177.933 47.0014C174.899 46.768 173.502 45.0972 173.741 41.9891L174.145 36.7406C174.384 33.6324 176.02 32.1951 179.054 32.4285L184.163 32.8216ZM201.047 34.1208C204.08 34.3542 205.478 36.025 205.239 39.1331L204.835 44.3816C204.596 47.4898 202.959 48.9271 199.925 48.6937L193.728 48.2168L193.882 46.2067L199.689 46.6535C201.625 46.8025 202.669 45.8812 202.822 43.8898L203.175 39.3113C203.327 37.3385 202.435 36.2776 200.499 36.1287L196.451 35.8172C194.534 35.6697 193.5 36.5823 193.348 38.5552L192.231 53.0723L190.193 52.9155L191.336 38.0634C191.575 34.9552 193.211 33.5178 196.245 33.7513L201.047 34.1208ZM220.346 35.6057L220.189 37.6437L214.075 37.1733C212.139 37.0243 211.095 37.9363 210.944 39.9091L210.591 44.4876C210.438 46.479 211.329 47.5492 213.265 47.6981L219.379 48.1686L219.224 50.1786L212.719 49.6781C209.686 49.4447 208.288 47.7739 208.528 44.6658L208.931 39.4173C209.171 36.3091 210.807 34.8718 213.841 35.1052L220.346 35.6057ZM226.013 36.0418L225.537 42.2395L227.575 42.3963L234.054 36.6605L236.51 36.8495L229.318 43.0922L235.78 51.4525L233.351 51.2657L227.465 43.8201L225.427 43.6633L224.892 50.6148L222.854 50.458L223.975 35.885L226.013 36.0418ZM241.539 37.2365L240.65 48.7943L251.366 37.9926L253.404 38.1494L252.283 52.7224L250.245 52.5656L251.141 40.924L240.418 51.8094L238.38 51.6526L239.501 37.0797L241.539 37.2365ZM261.274 30.4425C261.073 33.7783 262.136 35.5357 264.463 35.7147C266.808 35.8951 268.137 34.3218 268.449 30.9946L269.984 31.1127C269.804 33.2144 269.254 34.7634 268.335 35.7599C267.436 36.7391 266.111 37.1614 264.362 37.0268C262.631 36.8936 261.387 36.2737 260.63 35.167C259.892 34.0431 259.595 32.4289 259.739 30.3243L261.274 30.4425ZM259.41 38.6115L258.52 50.1694L269.237 39.3677L271.275 39.5245L270.153 54.0974L268.115 53.9406L269.011 42.299L258.288 53.1845L256.25 53.0277L257.372 38.4547L259.41 38.6115ZM291.695 41.0957C294.728 41.3292 296.126 43 295.887 46.1081L295.483 51.3566C295.244 54.4647 293.607 55.9021 290.573 55.6687L285.632 55.2885C282.598 55.055 281.201 53.3842 281.44 50.2761L281.844 45.0276C282.083 41.9195 283.72 40.4821 286.753 40.7155L291.695 41.0957ZM283.504 50.0979C283.351 52.0893 284.242 53.1595 286.178 53.3085L290.337 53.6285C292.273 53.7775 293.317 52.8562 293.471 50.8648L293.823 46.2863C293.975 44.3135 293.083 43.2526 291.147 43.1036L286.987 42.7836C285.052 42.6346 284.008 43.5466 283.856 45.5194L283.504 50.0979ZM314.035 42.8148L312.914 57.3877L310.876 57.2309L311.841 44.6959L302.014 43.9398L301.049 56.4747L299.011 56.3179L300.132 41.745L314.035 42.8148ZM319.929 43.2683L318.954 55.9428L326.52 56.5249C328.027 56.6409 328.837 55.9731 328.948 54.5214L329.03 53.4605C329.137 52.0646 328.437 51.3087 326.93 51.1927L320.453 50.6943L320.601 48.768L327.413 49.2922C330.056 49.4955 331.28 50.8628 331.085 53.394L330.976 54.8178C330.774 57.442 329.351 58.6525 326.708 58.4491L316.77 57.6844L317.891 43.1114L319.929 43.2683ZM335.982 44.5034L334.86 59.0764L332.822 58.9195L333.944 44.3466L335.982 44.5034ZM353.279 45.8344L353.122 47.8724L347.008 47.4019L346.044 59.9369L343.978 59.7779L344.942 47.2429L338.8 46.7704L338.957 44.7324L353.279 45.8344ZM374.322 47.4536L374.166 49.4916L368.052 49.0211C366.116 48.8722 365.072 49.7841 364.921 51.757L364.568 56.3354C364.415 58.3269 365.306 59.3971 367.242 59.546L373.356 60.0165L373.201 62.0265L366.696 61.526C363.663 61.2926 362.265 59.6218 362.505 56.5136L362.908 51.2652C363.148 48.157 364.784 46.7197 367.818 46.9531L374.322 47.4536ZM393.986 43.1254C397.281 43.3789 398.808 45.0597 398.569 48.1679L398.453 49.6754C398.208 52.858 396.522 54.329 393.396 54.0884L389.71 53.8049C387.738 53.6531 386.673 54.5915 386.517 56.6202L386.186 60.9195L397.13 61.7615L396.969 63.8553L383.903 62.85L384.41 56.2615C384.655 53.0789 386.332 51.6072 389.44 51.8463L393.181 52.1342C395.172 52.2874 396.245 51.359 396.4 49.3489L396.488 48.2043C396.63 46.3618 395.668 45.361 393.602 45.2021L385.673 44.592L385.834 42.4982L393.986 43.1254ZM412.603 44.5579C415.618 44.7899 417.007 46.4507 416.769 49.5402L415.914 60.6514C415.676 63.7409 414.05 65.1697 411.035 64.9377L405.368 64.5016C402.334 64.2682 400.936 62.6067 401.174 59.5171L402.029 48.406C402.266 45.3165 403.902 43.8884 406.936 44.1218L412.603 44.5579ZM403.321 59.3454C403.174 61.2624 404.04 62.2932 405.919 62.4379L410.777 62.8116C412.657 62.9563 413.671 62.0701 413.818 60.1531L414.621 49.712C414.769 47.795 413.903 46.7641 412.023 46.6195L407.165 46.2457C405.286 46.1011 404.272 46.9873 404.124 48.9043L403.321 59.3454ZM429.427 45.8525C432.722 46.106 434.249 47.7868 434.01 50.8949L433.894 52.4025C433.649 55.585 431.963 57.056 428.837 56.8155L425.151 56.5319C423.179 56.3801 422.114 57.3185 421.958 59.3472L421.627 63.6465L432.571 64.4886L432.41 66.5824L419.344 65.5771L419.851 58.9885C420.096 55.8059 421.773 54.3342 424.881 54.5734L428.622 54.8612C430.613 55.0145 431.686 54.086 431.841 52.076L431.929 50.9314C432.071 49.0888 431.109 48.0881 429.043 47.9291L421.114 47.319L421.275 45.2252L429.427 45.8525ZM438.44 46.546C440.86 46.7322 441.975 48.0536 441.786 50.5103L440.501 67.205L438.38 67.0417L439.634 50.7379C439.736 49.4165 439.135 48.7057 437.833 48.6054L436.8 48.5259L436.961 46.4321L438.44 46.546ZM464.402 54.3849L464.245 56.4228L454.586 55.6796L453.621 68.2145L451.583 68.0577L452.705 53.4848L464.402 54.3849ZM476.791 55.3381C479.825 55.5715 481.222 57.2423 480.983 60.3505L480.579 65.599C480.34 68.7071 478.703 70.1445 475.67 69.911L470.728 69.5308C467.695 69.2974 466.297 67.6266 466.536 64.5185L466.94 59.27C467.179 56.1618 468.816 54.7245 471.85 54.9579L476.791 55.3381ZM468.6 64.3403C468.447 66.3317 469.338 67.4019 471.274 67.5508L475.433 67.8709C477.369 68.0198 478.413 67.0986 478.567 65.1071L478.919 60.5287C479.071 58.5558 478.179 57.495 476.243 57.346L472.084 57.0259C470.148 56.877 469.104 57.789 468.952 59.7618L468.6 64.3403ZM484.264 68.5223C485.033 68.5066 485.666 68.3026 486.165 67.9103C486.663 67.518 487.051 66.8552 487.329 65.9217L490.03 56.3568L499.466 57.0829L498.502 69.6179L500.707 69.7876L500.211 76.2365L498.369 76.0947L498.708 71.6838L484.777 70.6118L484.438 75.0228L482.595 74.881L483.092 68.4321L484.264 68.5223ZM496.462 69.489L497.272 58.9641L491.381 58.5108L489.038 66.6992C488.911 67.1387 488.767 67.5396 488.608 67.9018C488.451 68.2454 488.268 68.5589 488.059 68.8424L496.462 69.489ZM513.281 58.1459C516.315 58.3793 517.712 60.0501 517.473 63.1583L517.069 68.4068C516.83 71.5149 515.194 72.9523 512.16 72.7188L507.023 72.3236C504.436 72.1245 503.242 70.7408 503.439 68.1724L503.527 67.0278C503.693 64.8688 505.005 63.8839 507.462 64.0729L514.19 64.5906L514.063 66.2377L507.865 65.7608C506.358 65.6448 505.555 66.2289 505.456 67.5131L505.404 68.1832C505.29 69.6721 505.995 70.4753 507.522 70.5927L511.96 70.9343C513.859 71.0803 514.884 70.1669 515.036 68.1941L515.42 63.1969C515.568 61.2799 514.72 60.2505 512.878 60.1087L504.558 59.4686L504.711 57.4864L513.281 58.1459Z" fill="#DBFF00"/>
</svg>
