<svg width="59" height="50" viewBox="0 0 59 50" fill="none" xmlns="http://www.w3.org/2000/svg">
<path d="M39.7618 29.0986C40.8954 29.0986 41.8352 29.6588 42.6528 30.7666C43.4619 31.8829 43.8918 33.2435 43.8918 34.8736C43.8918 36.4954 43.4619 37.8686 42.6528 38.9722C41.8394 40.0885 40.8954 40.6403 39.7618 40.6403C38.5902 40.6403 37.5619 40.0885 36.7486 38.9722C35.9394 37.8686 35.5096 36.4954 35.5096 34.8736C35.5096 33.2435 35.9394 31.8829 36.7486 30.7666C37.5577 29.6546 38.586 29.0986 39.7618 29.0986ZM54.2589 14.107C57.4028 17.5232 59 21.6681 59 26.5459C59 29.6967 58.6376 32.54 57.9085 35.0674C57.171 37.5821 56.2481 39.6335 55.1524 41.2131C54.0398 42.797 52.6744 44.1828 51.0476 45.3791C49.4209 46.5838 47.9249 47.4516 46.5594 48.0034C45.1898 48.5594 43.6305 48.9848 41.8774 49.2923C40.12 49.5914 38.8178 49.7599 37.9033 49.8104C37.0056 49.8484 36.0574 49.8694 35.0165 49.8694C34.7847 49.8694 33.9924 49.8863 32.7113 49.9326C31.4428 49.9874 30.3513 50 29.5 50C28.6487 50 27.5572 49.9874 26.2887 49.9326C25.0076 49.8863 24.2153 49.8694 23.9835 49.8694C22.9468 49.8694 21.9944 49.8484 21.0967 49.8104C20.178 49.7599 18.88 49.5914 17.1226 49.2923C15.34 48.9891 13.8102 48.5594 12.4406 48.0034C11.0751 47.4516 9.57486 46.5838 7.95657 45.3791C6.32564 44.1828 4.96022 42.797 3.84764 41.2131C2.74771 39.6335 1.829 37.5821 1.0915 35.0674C0.362428 32.54 0 29.6967 0 26.5459C0 21.6681 1.59721 17.519 4.74107 14.107C4.3955 13.9343 4.38286 12.2241 4.70736 8.98062C4.97286 5.73294 5.664 2.738 6.79343 0C10.7296 0.417018 15.6013 2.64954 21.4212 6.65965C23.3851 6.15838 26.0611 5.88879 29.5 5.88879C33.0906 5.88879 35.7835 6.15838 37.583 6.66386C40.2338 4.87363 42.7666 3.41617 45.1898 2.30834C47.6509 1.20893 49.4251 0.556024 50.5377 0.38332L52.2066 0.00421199C53.3444 2.73799 54.0356 5.73294 54.2969 8.98484C54.6171 12.2241 54.6045 13.9343 54.2589 14.107ZM29.6264 47.0472C36.7401 47.0472 42.0754 46.1963 45.7292 44.4903C49.3324 42.7885 51.1741 39.2755 51.1741 33.9764C51.1741 30.9014 50.0236 28.3319 47.7099 26.2763C46.5384 25.1685 45.1266 24.4861 43.542 24.2292C41.9616 23.9722 39.5426 23.9722 36.2934 24.2292C33.0526 24.4903 30.8233 24.6083 29.6264 24.6083C28.0039 24.6083 26.255 24.5324 24.0678 24.3597C21.8764 24.1912 20.1569 24.0859 18.9137 24.0312C17.6747 23.9933 16.3472 24.1449 14.8764 24.4861C13.4225 24.8315 12.2256 25.4297 11.2816 26.2763C9.086 28.2519 7.95236 30.813 7.95236 33.9764C7.95236 39.2755 9.74764 42.7885 13.3466 44.4903C16.9288 46.1963 22.2514 47.0472 29.3694 47.0472H29.6264ZM19.3689 29.0986C20.4983 29.0986 21.4423 29.6588 22.2556 30.7666C23.0648 31.8829 23.4946 33.2435 23.4946 34.8736C23.4946 36.4954 23.0648 37.8686 22.2556 38.9722C21.4465 40.0885 20.4983 40.6403 19.3689 40.6403C18.1931 40.6403 17.169 40.0885 16.3514 38.9722C15.5423 37.8686 15.1124 36.4954 15.1124 34.8736C15.1124 33.2435 15.5423 31.8829 16.3514 30.7666C17.1648 29.6546 18.1889 29.0986 19.3689 29.0986Z" fill="#171D2A"/>
</svg>
