<svg width="30" height="30" viewBox="0 0 30 30" fill="none" xmlns="http://www.w3.org/2000/svg">
<path d="M25.7967 11.9559C22.0915 9.80254 18.367 7.67456 14.6139 5.58495C12.7608 4.55317 10.8971 3.53573 9.02069 2.53631C7.3422 1.64234 5.6476 0.587857 3.73706 0.116011C2.47206 -0.196328 0.810447 0.100661 0.284961 1.26793C-0.135428 2.20161 0.0333417 3.2641 0.0341088 4.24984C0.0352595 5.79585 0.0364101 7.34186 0.0375608 8.88787C0.0417801 14.4095 0.0456156 19.9309 0.0498348 25.4525C0.0506019 26.7213 -0.22173 28.6814 1.23927 29.5069C2.82916 30.4056 4.4152 29.9504 5.89347 29.1422C12.3631 25.6044 19.0544 22.3552 25.679 19.0446C26.5715 18.5984 27.4649 18.1533 28.3582 17.7081C28.4253 17.6831 28.4928 17.6507 28.5607 17.607C28.6574 17.559 28.7318 17.5016 28.797 17.4408C29.7244 16.7431 30.4663 15.5524 29.647 14.5287C28.741 13.3968 27.0959 12.7107 25.7967 11.9559ZM27.5926 16.1661C22.1989 18.8527 16.8128 21.551 11.4548 24.2906C9.18715 25.4502 6.91797 26.6115 4.69099 27.8295C3.61892 28.4158 2.11265 28.6323 1.97687 27.1397C1.88673 26.1473 1.96767 25.1222 1.9669 24.1268C1.96498 21.6971 1.96345 19.2678 1.96153 16.8385C1.95808 12.4214 1.95501 8.00425 1.95156 3.58678C1.95079 2.36012 1.98608 1.41776 3.68719 1.83788C4.48271 2.03443 5.22223 2.50194 5.92799 2.86366C7.40664 3.62215 8.86726 4.40734 10.3237 5.1972C13.5145 6.92774 16.6686 8.70968 19.8119 10.5046C21.2346 11.3172 22.6534 12.1351 24.0699 12.9556C24.5586 13.2393 28.8864 15.3342 27.5926 16.1661Z" fill="white"/>
</svg>
