<svg width="40" height="40" viewBox="0 0 40 40" fill="none" xmlns="http://www.w3.org/2000/svg">
<path d="M20.0004 40C16.0448 40.0001 12.178 38.8272 8.88892 36.6296C5.59988 34.432 3.03637 31.3085 1.52254 27.654C0.0087247 23.9995 -0.387405 19.9781 0.384249 16.0985C1.1559 12.2188 3.06068 8.65512 5.85772 5.85803C8.65475 3.06093 12.2184 1.15608 16.098 0.384336C19.9777 -0.387404 23.999 0.00863635 27.6536 1.52238C31.3081 3.03612 34.4317 5.59956 36.6294 8.88856C38.827 12.1775 40 16.0444 40 20C39.994 25.3024 37.8851 30.386 34.1357 34.1354C30.3864 37.8848 25.3029 39.9939 20.0004 40ZM20.0004 1.80318C16.4014 1.80309 12.8832 2.87025 9.89071 4.86968C6.8982 6.86912 4.5658 9.71105 3.18846 13.0361C1.81112 16.3611 1.4507 20.0199 2.15278 23.5498C2.85485 27.0796 4.5879 30.322 7.13275 32.8669C9.67761 35.4119 12.92 37.145 16.4498 37.8471C19.9797 38.5493 23.6385 38.189 26.9635 36.8117C30.2886 35.4345 33.1306 33.1021 35.1301 30.1097C37.1296 27.1172 38.1968 23.599 38.1968 20C38.1913 15.1757 36.2725 10.5505 32.8612 7.13912C29.4499 3.72775 24.8248 1.80878 20.0004 1.80318Z" fill="white"/>
<path d="M16.2024 27.48C16.084 27.4801 15.9667 27.4568 15.8573 27.4115C15.7479 27.3662 15.6485 27.2998 15.5647 27.2161C15.481 27.1323 15.4146 27.0329 15.3693 26.9235C15.324 26.8141 15.3007 26.6968 15.3008 26.5784V13.4218C15.3008 13.2635 15.3424 13.108 15.4215 12.9709C15.5006 12.8338 15.6144 12.72 15.7515 12.6409C15.8886 12.5617 16.0441 12.52 16.2023 12.52C16.3606 12.52 16.5161 12.5617 16.6532 12.6408L28.0467 19.2191C28.1838 19.2983 28.2976 19.4121 28.3767 19.5492C28.4558 19.6863 28.4975 19.8418 28.4975 20.0001C28.4975 20.1584 28.4558 20.3139 28.3767 20.451C28.2976 20.5881 28.1838 20.7019 28.0467 20.7811L16.6532 27.3594C16.5161 27.4385 16.3606 27.4801 16.2024 27.48ZM17.104 14.9833V25.0169L25.7927 20.0001L17.104 14.9833Z" fill="white"/>
</svg>
