<svg width="40" height="40" viewBox="0 0 40 40" fill="none" xmlns="http://www.w3.org/2000/svg">
<path d="M39.1291 0.519421C38.8632 0.306048 38.5521 0.152574 38.2181 0.0699951C37.8841 -0.012584 37.5354 -0.0222242 37.1972 0.0417661L15.3818 4.15557C14.8497 4.25435 14.3698 4.53094 14.0249 4.93756C13.68 5.34418 13.4918 5.8553 13.4928 6.38263V27.686C12.3231 26.3545 10.7096 25.466 8.93472 25.1761C7.15985 24.8863 5.3368 25.2135 3.78485 26.1006C2.23289 26.9876 1.05096 28.3779 0.446048 30.028C-0.158866 31.6781 -0.148202 33.4828 0.476171 35.126C1.10055 36.7691 2.29883 38.1461 3.86116 39.0157C5.4235 39.8854 7.25029 40.1922 9.02162 39.8824C10.7929 39.5727 12.3959 38.6662 13.5497 37.3217C14.7036 35.9771 15.3347 34.2803 15.3327 32.5282V6.38263C15.3321 6.27106 15.3717 6.1628 15.4445 6.07665C15.5173 5.99049 15.6188 5.93186 15.7314 5.91095L37.5468 1.80312C37.6196 1.78354 37.6962 1.78082 37.7703 1.79519C37.8444 1.80956 37.9141 1.84062 37.9737 1.88587C38.0333 1.93113 38.0812 1.98933 38.1135 2.05583C38.1459 2.12232 38.1618 2.19527 38.1601 2.26883V23.0408C36.9904 21.7093 35.3769 20.8208 33.602 20.5309C31.8271 20.2411 30.0041 20.5683 28.4521 21.4554C26.9002 22.3424 25.7182 23.7327 25.1133 25.3828C24.5084 27.0329 24.5191 28.8376 25.1435 30.4808C25.7678 32.124 26.9661 33.5009 28.5284 34.3705C30.0908 35.2402 31.9176 35.547 33.6889 35.2373C35.4602 34.9275 37.0632 34.021 38.217 32.6765C39.3708 31.3319 40.002 29.6351 40 27.8831V2.26883C39.9983 1.93241 39.9193 1.60062 39.7685 1.29788C39.6178 0.995132 39.3993 0.729126 39.1291 0.519421ZM7.65409 38.2123C6.49878 38.2123 5.36944 37.8787 4.40901 37.2536C3.44858 36.6284 2.70022 35.74 2.25867 34.7007C1.81712 33.6614 1.70221 32.5179 1.92849 31.4149C2.15477 30.312 2.71208 29.2992 3.52986 28.5048C4.34764 27.7103 5.38915 27.1699 6.52255 26.9519C7.65596 26.7339 8.83031 26.8482 9.89697 27.2803C10.9636 27.7123 11.8747 28.4427 12.5148 29.379C13.1548 30.3153 13.4952 31.4155 13.4928 32.5402C13.4879 34.0451 12.8708 35.4869 11.7766 36.55C10.6823 37.613 9.19999 38.2108 7.65409 38.2123ZM32.2968 33.5671C31.142 33.5671 30.0132 33.2338 29.053 32.6092C28.0929 31.9846 27.3445 31.0969 26.9026 30.0583C26.4607 29.0196 26.345 27.8767 26.5703 26.7741C26.7956 25.6715 27.3517 24.6587 28.1683 23.8638C28.9848 23.0689 30.0252 22.5275 31.1578 22.3082C32.2904 22.0889 33.4643 22.2014 34.5312 22.6316C35.5981 23.0619 36.51 23.7904 37.1515 24.7251C37.7931 25.6599 38.1355 26.7588 38.1355 27.8831C38.1339 29.3901 37.5182 30.8349 36.4236 31.9006C35.329 32.9662 33.8449 33.5656 32.2968 33.5671Z" fill="white"/>
</svg>
