<svg width="30" height="30" viewBox="0 0 30 30" fill="none" xmlns="http://www.w3.org/2000/svg">
<path d="M4.20327 11.9559C7.90852 9.80254 11.633 7.67456 15.3861 5.58495C17.2392 4.55317 19.1029 3.53573 20.9793 2.53631C22.6578 1.64234 24.3524 0.587857 26.2629 0.116011C27.5279 -0.196328 29.1896 0.100661 29.715 1.26793C30.1354 2.20161 29.9667 3.2641 29.9659 4.24984C29.9647 5.79585 29.9636 7.34186 29.9624 8.88787C29.9582 14.4095 29.9544 19.9309 29.9502 25.4525C29.9494 26.7213 30.2217 28.6814 28.7607 29.5069C27.1708 30.4056 25.5848 29.9504 24.1065 29.1422C17.6369 25.6044 10.9456 22.3552 4.32103 19.0446C3.42847 18.5984 2.53514 18.1533 1.64182 17.7081C1.57469 17.6831 1.50718 17.6507 1.43929 17.607C1.34263 17.559 1.26822 17.5016 1.20301 17.4408C0.275551 16.7431 -0.466265 15.5524 0.353033 14.5287C1.25902 13.3968 2.90413 12.7107 4.20327 11.9559ZM2.40741 16.1661C7.80112 18.8527 13.1872 21.551 18.5452 24.2906C20.8128 25.4502 23.082 26.6115 25.309 27.8295C26.3811 28.4158 27.8873 28.6323 28.0231 27.1397C28.1133 26.1473 28.0323 25.1222 28.0331 24.1268C28.035 21.6971 28.0366 19.2678 28.0385 16.8385C28.0419 12.4214 28.045 8.00425 28.0484 3.58678C28.0492 2.36012 28.0139 1.41776 26.3128 1.83788C25.5173 2.03443 24.7778 2.50194 24.072 2.86366C22.5934 3.62215 21.1327 4.40734 19.6763 5.1972C16.4855 6.92774 13.3314 8.70968 10.1881 10.5046C8.76541 11.3172 7.3466 12.1351 5.93009 12.9556C5.44143 13.2393 1.11364 15.3342 2.40741 16.1661Z" fill="white"/>
</svg>
